<?xml version="1.0" encoding="UTF-8"?>
<svg width="89px" height="89px" viewBox="0 0 89 89" version="1.1" xmlns="http://www.w3.org/2000/svg" xmlns:xlink="http://www.w3.org/1999/xlink">
    <title>logo</title>
    <g stroke="none" stroke-width="1" fill="none" fill-rule="evenodd">
        <g id="logo">
            <circle fill="#FFFFFF" fill-rule="nonzero" cx="44.5" cy="44.5" r="44.5"></circle>
            <path d="M88.7684237,40.1021097 C86.2957904,15.6035723 64.4377124,-2.24961282 39.9091905,0.229996222 C15.3806686,2.70960527 -2.32338554,24.7285336 0.248153052,49.2270709 C2.42407032,70.0557869 18.6445445,86.520391 39.3157585,89 L42.1840131,42.38335 L46.338037,42.38335 L49.2062916,89 C73.6359082,86.4212066 91.241057,64.5014626 88.7684237,40.1021097 Z" id="路径" fill="#15A1C2" fill-rule="nonzero"></path>
            <line x1="73.5" y1="36" x2="73.5" y2="51" stroke="#FFFFFF" stroke-width="2" stroke-linecap="round" stroke-linejoin="round"></line>
            <path d="M44.9249819,15.1514304 L13.6787908,32.6164089 C13.0817298,32.9192698 12.7831993,33.7268989 13.1812399,34.3326207 C13.2807501,34.5345279 13.4797704,34.7364352 13.6787908,34.8373888 L20.9430326,39.5822096 C21.4405835,39.8850705 22.0376444,39.8850705 22.4356851,39.4812559 C35.6705367,28.0734954 55.0750185,28.0734954 68.21036,39.6831632 C68.6084007,40.0869777 69.3049718,40.0869777 69.7030124,39.7841168 L77.365295,34.8373888 C77.962356,34.4335743 78.1613763,33.7268989 77.8628458,33.0202234 C77.7633356,32.8183162 77.5643153,32.6164089 77.365295,32.5154553 L46.218614,15.1514304 C45.8205734,14.9495232 45.3230225,14.9495232 44.9249819,15.1514304 Z" id="路径" fill="#FFFFFF" fill-rule="nonzero"></path>
            <path d="M35.0611446,41.0142327 L38.1343993,43.4804716 C38.431811,43.7887515 38.9274973,43.7887515 39.3240463,43.6859915 C41.4059285,43.0694318 43.6860852,42.7611519 45.8671047,42.7611519 C50.4274182,42.7611519 54.7894571,44.0970313 58.6558098,46.7687901 C59.0523588,47.07707 59.6471823,47.07707 60.1428686,46.7687901 L65.3971427,43.1721918 C65.9919662,42.7611519 66.1902407,41.9390723 65.7936917,41.3225126 C65.6945545,41.2197526 65.5954172,41.0142327 65.49628,41.0142327 C53.8972219,31.765837 38.035262,31.663077 26.5353411,40.7059529 C25.9405177,41.1169927 25.8413804,41.9390723 26.2379294,42.555632 C26.3370666,42.658392 26.4362039,42.7611519 26.5353411,42.8639119 L27.6258509,43.6859915 C28.1215371,43.9942714 28.7163606,43.9942714 29.1129096,43.6859915 C30.5008311,42.555632 31.9878898,41.6307925 33.5740858,40.8087128 C34.1689093,40.6031929 34.6645956,40.6031929 35.0611446,41.0142327 Z" id="路径" fill="#FFFFFF" fill-rule="nonzero"></path>
        </g>
    </g>
</svg>